<svg width="40" height="40" viewBox="0 0 40 40" fill="none" xmlns="http://www.w3.org/2000/svg">
<rect width="40" height="40" transform="matrix(-1 0 0 1 40 0)" fill="#B8B8B8"/>
<path d="M4.16469 31.8217C4.16469 33.6074 4.70785 35.0173 5.79416 36.0516C6.88047 37.0858 8.32392 37.6029 10.1245 37.6029H29.6334C31.434 37.6029 32.8775 37.0858 33.9638 36.0516C35.0501 35.0173 35.5933 33.6074 35.5933 31.8217C35.5933 31.033 35.5672 30.2629 35.5151 29.5114C35.4631 28.7599 35.3589 27.9489 35.2026 27.0784C35.0464 26.2078 34.8492 25.4005 34.6111 24.6565C34.373 23.9124 34.0531 23.187 33.6513 22.4801C33.2495 21.7733 32.7882 21.1706 32.2674 20.6721C31.7465 20.1736 31.1104 19.7755 30.3589 19.4779C29.6074 19.1803 28.7778 19.0315 27.87 19.0315C27.7361 19.0315 27.4236 19.1914 26.9325 19.5114C26.4415 19.8313 25.8872 20.1885 25.2696 20.5828C24.652 20.9772 23.8485 21.3343 22.8589 21.6542C21.8693 21.9742 20.876 22.1342 19.879 22.1342C18.882 22.1342 17.8886 21.9742 16.8991 21.6542C15.9095 21.3343 15.1059 20.9772 14.4884 20.5828C13.8708 20.1885 13.3165 19.8313 12.8254 19.5114C12.3343 19.1914 12.0218 19.0315 11.8879 19.0315C10.9802 19.0315 10.1506 19.1803 9.39907 19.4779C8.64758 19.7755 8.01142 20.1736 7.49058 20.6721C6.96975 21.1706 6.50844 21.7733 6.10666 22.4801C5.70487 23.187 5.38493 23.9124 5.14683 24.6565C4.90874 25.4005 4.71157 26.2078 4.55532 27.0784C4.39907 27.9489 4.2949 28.7599 4.24282 29.5114C4.19073 30.2629 4.16469 31.033 4.16469 31.8217ZM11.3075 11.8886C11.3075 14.2547 12.1446 16.2748 13.8187 17.9489C15.4928 19.623 17.5129 20.4601 19.879 20.4601C22.245 20.4601 24.2651 19.623 25.9392 17.9489C27.6134 16.2748 28.4504 14.2547 28.4504 11.8886C28.4504 9.52255 27.6134 7.50246 25.9392 5.82836C24.2651 4.15425 22.245 3.3172 19.879 3.3172C17.5129 3.3172 15.4928 4.15425 13.8187 5.82836C12.1446 7.50246 11.3075 9.52255 11.3075 11.8886Z" fill="black"/>
</svg>
